<svg width="39" height="37" viewBox="0 0 39 37" fill="none" xmlns="http://www.w3.org/2000/svg">
<path d="M36.3333 12.8235V35.2647C36.3333 35.8549 35.8549 36.3333 35.2647 36.3333H3.20588C2.6157 36.3333 2.13725 35.8549 2.13725 35.2647V12.8235H1.06863C0.478441 12.8235 0 12.3451 0 11.7549V1.06863C0 0.478441 0.478441 0 1.06863 0H37.402C37.9921 0 38.4706 0.478441 38.4706 1.06863V11.7549C38.4706 12.3451 37.9921 12.8235 37.402 12.8235H36.3333ZM34.1961 12.8235H4.27451V34.1961H34.1961V12.8235ZM2.13725 10.6863H36.3333V2.13725H2.13725V10.6863ZM24.5784 19.2353C25.168 19.2353 25.6471 18.7562 25.6471 18.1667C25.6471 17.5771 25.168 17.098 24.5784 17.098H13.8922C13.3026 17.098 12.8235 17.5771 12.8235 18.1667C12.8235 18.7562 13.3026 19.2353 13.8922 19.2353H24.5784ZM24.5784 21.3725H13.8922C12.1222 21.3725 10.6863 19.9366 10.6863 18.1667C10.6863 16.3967 12.1222 14.9608 13.8922 14.9608H24.5784C26.3484 14.9608 27.7843 16.3967 27.7843 18.1667C27.7843 19.9366 26.3484 21.3725 24.5784 21.3725Z" fill="white"/>
</svg>
