<svg width="36" height="38" viewBox="0 0 36 38" fill="none" xmlns="http://www.w3.org/2000/svg">
<path d="M25.2521 23.0941C25.1501 23.094 25.0493 23.072 24.9566 23.0295L1.37358 12.3125C0.228532 11.792 -0.301517 10.489 0.186654 9.40857L3.90059 1.23051C4.39235 0.153657 5.72285 -0.305798 6.8691 0.214679L34.7475 12.8808C34.9623 12.9799 35.1145 13.1784 35.1544 13.4115C35.1944 13.6447 35.1169 13.8825 34.9473 14.0474L25.7534 22.8907C25.6192 23.0213 25.4393 23.0943 25.2521 23.0941ZM5.8772 1.43152C5.59349 1.41879 5.32894 1.57452 5.20238 1.82876L1.49323 10.0008C1.32931 10.3598 1.54229 10.8157 1.97183 11.0095L25.1145 21.5267L33.198 13.7495L6.27922 1.52006C6.15304 1.46227 6.01598 1.43209 5.8772 1.43152Z" fill="white"/>
<path d="M16.179 9.40618C16.077 9.40625 15.9762 9.3842 15.8835 9.34157L7.72698 5.63242C7.46266 5.54943 7.26968 5.32175 7.23113 5.0474C7.19257 4.77305 7.31532 4.501 7.54653 4.34837C7.77774 4.19573 8.07614 4.18976 8.31327 4.33302L16.4698 8.04217C16.7726 8.18447 16.937 8.51713 16.8661 8.84414C16.7951 9.17115 16.5077 9.40577 16.1731 9.40977L16.179 9.40618Z" fill="white"/>
<path d="M23.4765 12.8724C23.3745 12.8724 23.2737 12.8504 23.181 12.8078L19.1703 10.9844C18.8325 10.8069 18.6925 10.3961 18.8517 10.0493C19.011 9.70244 19.4138 9.54082 19.7686 9.68138L23.7792 11.5048C24.0821 11.6471 24.2465 11.9798 24.1755 12.3068C24.1046 12.6338 23.8171 12.8684 23.4825 12.8724H23.4765Z" fill="white"/>
<path d="M31.0934 22.9015C30.9914 22.9016 30.8905 22.8795 30.7978 22.8369L27.2179 21.212C26.971 21.1142 26.7982 20.888 26.7688 20.6241C26.7394 20.3601 26.8582 20.1014 27.0775 19.9517C27.2969 19.8019 27.581 19.7855 27.8162 19.909L30.7428 21.2383L32.504 17.3629L31.6366 16.9692C31.3826 16.8773 31.2017 16.6506 31.1685 16.3826C31.1352 16.1145 31.2552 15.8505 31.479 15.6993C31.7029 15.5481 31.9926 15.5353 32.2289 15.6663L33.7484 16.3566C34.1086 16.5198 34.2691 16.9434 34.1074 17.3043L31.7538 22.4827C31.6357 22.7405 31.3769 22.9046 31.0934 22.9015Z" fill="white"/>
<path d="M13.31 22.9649C11.2687 22.9615 9.36876 21.9222 8.26482 20.2052C7.16088 18.4882 7.00389 16.3283 7.84794 14.4698C8.02542 14.1319 8.43621 13.9919 8.78304 14.1512C9.12987 14.3104 9.29149 14.7132 9.15093 15.068C8.45271 16.5607 8.61047 18.3135 9.56402 19.6576C10.5176 21.0017 12.1198 21.7297 13.7594 21.5638C15.399 21.398 16.823 20.3639 17.4881 18.8561C17.6656 18.5183 18.0764 18.3783 18.4232 18.5375C18.7701 18.6968 18.9317 19.0996 18.7911 19.4544C17.8088 21.5966 15.6667 22.9686 13.31 22.9649Z" fill="white"/>
<path d="M8.02372 30.5543H0.717899C0.321414 30.5543 0 30.2329 0 29.8364C0 29.4399 0.321414 29.1185 0.717899 29.1185H7.53794L10.467 21.7373C10.5454 21.4782 10.7629 21.2853 11.0295 21.2383C11.2961 21.1913 11.5664 21.2983 11.7287 21.515C11.891 21.7316 11.9176 22.0211 11.7975 22.2637L8.68658 30.102C8.57837 30.3737 8.31617 30.5526 8.02372 30.5543Z" fill="white"/>
<path d="M0.717899 37.7476C0.321414 37.7476 0 37.4262 0 37.0297V19.8002C0 19.4037 0.321414 19.0823 0.717899 19.0823C1.11438 19.0823 1.4358 19.4037 1.4358 19.8002V37.0297C1.4358 37.4262 1.11438 37.7476 0.717899 37.7476Z" fill="white"/>
</svg>
