<svg width="43" height="38" viewBox="0 0 43 38" fill="none" xmlns="http://www.w3.org/2000/svg">
<path d="M7.02777 37.4999V33.4004H42.0003V37.4999H7.02777ZM12.2051 24.0556L16.3031 19.9342H42V24.0556H12.2051ZM12.2023 10.6071L16.3036 6.46838H42V10.6071H12.2023Z" fill="white" stroke="#454545"/>
<path d="M0.696209 6.3376L2.91763 4.04559L6.24899 7.48059L6.60828 7.85106L6.96719 7.48023L13.5114 0.718686L15.7326 3.0104L6.60757 12.435L4.0451 9.79484L4.04476 9.79448L0.696209 6.3376ZM6.24916 20.9165L6.60825 21.2859L6.96676 20.9159L13.511 14.1624L15.7323 16.4543L6.60734 25.8789L4.04519 23.2392L4.04485 23.2388L0.696304 19.7819L2.91813 17.4895L6.24916 20.9165Z" fill="#3BB30B" stroke="#454545"/>
</svg>
