<svg width="68" height="65" viewBox="0 0 68 65" fill="none" xmlns="http://www.w3.org/2000/svg">
<path d="M0.944102 10.52C1.73077 10.8267 2.47077 11.0867 3.1641 11.3C3.87077 11.5133 4.6241 11.62 5.4241 11.62C6.01077 11.62 6.4041 11.5467 6.6041 11.4C6.81744 11.24 6.9241 11.0467 6.9241 10.82C6.9241 10.58 6.8241 10.3867 6.6241 10.24C6.43744 10.08 6.05077 9.90667 5.4641 9.72C4.75744 9.49333 4.11077 9.26 3.5241 9.02C2.95077 8.78 2.45743 8.48667 2.0441 8.14C1.6441 7.78 1.33077 7.35333 1.1041 6.86C0.890768 6.35333 0.784102 5.72667 0.784102 4.98C0.784102 4.26 0.924102 3.62 1.2041 3.06C1.4841 2.5 1.87743 2.03333 2.3841 1.66C2.9041 1.27333 3.53077 0.979999 4.2641 0.779999C4.99744 0.58 5.81744 0.48 6.7241 0.48C7.93744 0.48 8.99077 0.586666 9.8841 0.799999C10.7908 0.999999 11.5308 1.2 12.1041 1.4L11.0241 4.84C10.8374 4.76 10.6108 4.67333 10.3441 4.58C10.0774 4.48667 9.79077 4.4 9.4841 4.32C9.17744 4.24 8.85077 4.17333 8.5041 4.12C8.17077 4.06667 7.83744 4.04 7.5041 4.04C7.03744 4.04 6.67744 4.11333 6.4241 4.26C6.17077 4.40667 6.0441 4.6 6.0441 4.84C6.0441 4.97333 6.0641 5.09333 6.1041 5.2C6.15744 5.29333 6.27077 5.39333 6.4441 5.5C6.61744 5.59333 6.87744 5.70667 7.2241 5.84C7.5841 5.96 8.07744 6.12 8.7041 6.32C9.8641 6.69333 10.7441 7.20667 11.3441 7.86C11.9574 8.5 12.2641 9.39333 12.2641 10.54C12.2641 12.1533 11.7574 13.36 10.7441 14.16C9.73077 14.96 8.25077 15.36 6.3041 15.36C5.31744 15.36 4.3641 15.28 3.4441 15.12C2.53743 14.96 1.7041 14.7467 0.944102 14.48V10.52ZM14.3976 5.316H13.1916V2.256H18.6636V9.51C18.6636 9.954 18.6936 10.314 18.7536 10.59C18.8136 10.866 18.9036 11.082 19.0236 11.238C19.1436 11.394 19.2996 11.502 19.4916 11.562C19.6836 11.61 19.9176 11.634 20.1936 11.634C20.4576 11.634 20.6856 11.61 20.8776 11.562C21.0816 11.502 21.2436 11.394 21.3636 11.238C21.4836 11.082 21.5736 10.866 21.6336 10.59C21.6936 10.314 21.7236 9.954 21.7236 9.51V2.256H27.0696V5.316H25.8636V9.474C25.8636 10.446 25.7616 11.298 25.5576 12.03C25.3656 12.762 25.0476 13.374 24.6036 13.866C24.1596 14.346 23.5776 14.712 22.8576 14.964C22.1376 15.204 21.2496 15.324 20.1936 15.324C19.1256 15.324 18.2196 15.204 17.4756 14.964C16.7436 14.712 16.1496 14.346 15.6936 13.866C15.2376 13.374 14.9076 12.762 14.7036 12.03C14.4996 11.298 14.3976 10.446 14.3976 9.474V5.316ZM28.01 11.94H29.216V5.316H28.01V2.256H34.544C35.36 2.256 36.08 2.358 36.704 2.562C37.34 2.754 37.868 3.036 38.288 3.408C38.72 3.768 39.044 4.206 39.26 4.722C39.476 5.238 39.584 5.808 39.584 6.432C39.584 7.104 39.494 7.704 39.314 8.232C39.134 8.748 38.846 9.18 38.45 9.528C38.054 9.876 37.544 10.14 36.92 10.32C36.308 10.5 35.57 10.59 34.706 10.59H33.23V11.94H34.544V15H28.01V11.94ZM34.4 7.584C35.156 7.584 35.534 7.242 35.534 6.558C35.534 5.874 35.156 5.532 34.4 5.532H33.248V7.584H34.4ZM40.508 11.94H41.714V5.316H40.508V2.256H50.678V5.55H45.908V6.828H50.048V10.122H45.908V11.706H51.02V15H40.508V11.94ZM52.0034 11.6H53.3434V4.24H52.0034V0.84H59.7234C60.6301 0.84 61.4234 0.953333 62.1034 1.18C62.7967 1.39333 63.3701 1.7 63.8234 2.1C64.2767 2.5 64.6167 2.98 64.8434 3.54C65.0701 4.08667 65.1834 4.69333 65.1834 5.36C65.1834 5.78667 65.1434 6.16667 65.0634 6.5C64.9834 6.82 64.8567 7.11333 64.6834 7.38C64.5234 7.63333 64.3167 7.86667 64.0634 8.08C63.8234 8.28 63.5367 8.47333 63.2034 8.66C63.5101 8.9 63.7434 9.18667 63.9034 9.52C64.0767 9.85333 64.2301 10.18 64.3634 10.5C64.5101 10.8067 64.6701 11.0667 64.8434 11.28C65.0167 11.4933 65.2767 11.6 65.6234 11.6H66.2834V15H62.8434C62.3501 15 61.9367 14.8933 61.6034 14.68C61.2701 14.4667 60.9901 14.1933 60.7634 13.86C60.5367 13.5133 60.3434 13.1333 60.1834 12.72C60.0234 12.3067 59.8701 11.9067 59.7234 11.52C59.5767 11.1333 59.4101 10.78 59.2234 10.46C59.0501 10.14 58.8367 9.9 58.5834 9.74H57.7634V11.6H58.9834V15H52.0034V11.6ZM59.1034 6.64C59.5167 6.64 59.8301 6.55333 60.0434 6.38C60.2567 6.20667 60.3634 5.92667 60.3634 5.54C60.3634 4.80667 59.9434 4.44 59.1034 4.44H57.7834V6.64H59.1034ZM12.9585 61.6H14.2985V54.24H12.9585V50.84H20.6185V54.24H19.0785V61.3H24.3785V65H12.9585V61.6ZM25.3674 61.94H26.5374L29.6874 52.256H35.3034L38.4354 61.94H39.6054V65H35.0154L34.3314 62.588H30.3354L29.6514 65H25.3674V61.94ZM33.3774 59.276L32.3334 55.676L31.2894 59.276H33.3774ZM40.5893 61.6H41.9293V54.24H40.5893V50.84H48.0893C49.1427 50.84 50.0093 50.9467 50.6893 51.16C51.3693 51.36 51.896 51.6333 52.2693 51.98C52.656 52.3133 52.9227 52.7 53.0693 53.14C53.216 53.58 53.2893 54.0267 53.2893 54.48C53.2893 55.2667 53.096 55.9 52.7093 56.38C52.3227 56.86 51.876 57.2067 51.3693 57.42C52.236 57.6867 52.8893 58.1333 53.3293 58.76C53.7827 59.3867 54.0093 60.0733 54.0093 60.82C54.0093 62.1533 53.5693 63.1867 52.6893 63.92C51.8093 64.64 50.5427 65 48.8893 65H40.5893V61.6ZM47.5293 56.28C47.996 56.28 48.3093 56.18 48.4693 55.98C48.6427 55.78 48.7293 55.5267 48.7293 55.22C48.7293 54.94 48.6427 54.7067 48.4693 54.52C48.3093 54.32 47.996 54.22 47.5293 54.22H46.3893V56.28H47.5293ZM47.7093 61.54C48.136 61.54 48.4693 61.4333 48.7093 61.22C48.9627 61.0067 49.0893 60.7133 49.0893 60.34C49.0893 59.9533 48.9627 59.66 48.7093 59.46C48.4693 59.2467 48.136 59.14 47.7093 59.14H46.3893V61.54H47.7093Z" fill="white"/>
<path d="M9.115 34.44H7.695V31.68H13.275V38.94C12.3683 39.4867 11.435 39.86 10.475 40.06C9.52833 40.26 8.515 40.36 7.435 40.36C6.20833 40.36 5.12833 40.18 4.195 39.82C3.275 39.46 2.50167 38.9533 1.875 38.3C1.26167 37.6467 0.801667 36.8667 0.495 35.96C0.188333 35.04 0.035 34.0267 0.035 32.92C0.035 31.7867 0.208333 30.7667 0.555 29.86C0.915 28.94 1.42833 28.16 2.095 27.52C2.76167 26.8667 3.575 26.3667 4.535 26.02C5.495 25.66 6.58833 25.48 7.815 25.48C8.42833 25.48 9.00167 25.5267 9.535 25.62C10.0683 25.7133 10.555 25.8267 10.995 25.96C11.435 26.0933 11.8283 26.24 12.175 26.4C12.5217 26.56 12.815 26.7067 13.055 26.84L11.515 30.26C11.0883 29.98 10.6283 29.7533 10.135 29.58C9.655 29.3933 9.095 29.3 8.455 29.3C7.90833 29.3 7.42833 29.3933 7.015 29.58C6.60167 29.7533 6.26167 30.0067 5.995 30.34C5.72833 30.66 5.52833 31.0467 5.395 31.5C5.26167 31.94 5.195 32.42 5.195 32.94C5.195 33.42 5.24833 33.8733 5.355 34.3C5.46167 34.7267 5.62833 35.1 5.855 35.42C6.095 35.74 6.38833 35.9933 6.735 36.18C7.08167 36.3667 7.495 36.46 7.975 36.46C8.20167 36.46 8.42167 36.4467 8.635 36.42C8.86167 36.3933 9.02167 36.3667 9.115 36.34V34.44ZM14.9407 36.94H16.1467V30.316H14.9407V27.256H21.8887C22.7047 27.256 23.4187 27.358 24.0307 27.562C24.6547 27.754 25.1707 28.03 25.5787 28.39C25.9867 28.75 26.2927 29.182 26.4967 29.686C26.7007 30.178 26.8027 30.724 26.8027 31.324C26.8027 31.708 26.7667 32.05 26.6947 32.35C26.6227 32.638 26.5087 32.902 26.3527 33.142C26.2087 33.37 26.0227 33.58 25.7947 33.772C25.5787 33.952 25.3207 34.126 25.0207 34.294C25.2967 34.51 25.5067 34.768 25.6507 35.068C25.8067 35.368 25.9447 35.662 26.0647 35.95C26.1967 36.226 26.3407 36.46 26.4967 36.652C26.6527 36.844 26.8867 36.94 27.1987 36.94H27.7927V40H24.6967C24.2527 40 23.8807 39.904 23.5807 39.712C23.2807 39.52 23.0287 39.274 22.8247 38.974C22.6207 38.662 22.4467 38.32 22.3027 37.948C22.1587 37.576 22.0207 37.216 21.8887 36.868C21.7567 36.52 21.6067 36.202 21.4387 35.914C21.2827 35.626 21.0907 35.41 20.8627 35.266H20.1247V36.94H21.2227V40H14.9407V36.94ZM21.3307 32.476C21.7027 32.476 21.9847 32.398 22.1767 32.242C22.3687 32.086 22.4647 31.834 22.4647 31.486C22.4647 30.826 22.0867 30.496 21.3307 30.496H20.1427V32.476H21.3307ZM28.7219 36.94H29.9279V30.316H28.7219V27.256H38.8919V30.55H34.1219V31.828H38.2619V35.122H34.1219V36.706H39.2339V40H28.7219V36.94ZM40.1653 36.94H41.3713V30.316H40.1653V27.256H50.3353V30.55H45.5653V31.828H49.7053V35.122H45.5653V36.706H50.6773V40H40.1653V36.94ZM51.6606 36.6H53.0006V29.24H51.6606V25.84H57.7606L61.4606 32.92V25.84H67.1006V29.24H65.7606V40H61.1806L57.2606 32.94V40H51.6606V36.6Z" fill="#3BB30B"/>
</svg>
