<svg width="12" height="18" viewBox="0 0 12 18" fill="none" xmlns="http://www.w3.org/2000/svg">
<path d="M6.03277 3.81438C6.16736 3.61171 6.32398 3.41787 6.50875 3.23906C7.26447 2.50771 8.28881 2.20138 9.12785 2.07724C9.96865 1.95284 10.637 2.0094 10.694 2.01457C10.8984 2.03152 11.0643 2.18901 11.0821 2.39302C11.0878 2.45197 11.1456 3.09819 11.0173 3.9105C10.8888 4.72388 10.5717 5.71646 9.81547 6.44826C8.6745 7.55244 6.92304 7.69227 6.09965 7.69236V8.64431H9.59052C9.71553 8.64431 9.83082 8.69846 9.91156 8.78481C9.99466 8.87371 10.0336 8.99561 10.0206 9.1137L10.0204 9.11485L9.18391 15.9496L6.03277 3.81438ZM6.03277 3.81438C5.89779 3.39429 5.70558 3.01542 5.45724 2.69311L5.45717 2.69301C4.81696 1.86418 3.84952 1.41928 3.03885 1.18028C2.23972 0.944683 1.58002 0.905419 1.50548 0.900983C1.50423 0.900908 1.50314 0.900843 1.50222 0.900788C1.29624 0.888329 1.11 1.02491 1.06184 1.21981L1.15892 1.2438M6.03277 3.81438L1.79377 5.34924C0.550524 3.7397 1.13247 1.34619 1.15892 1.2438M1.15892 1.2438L1.0621 1.21878C1.04757 1.27503 0.893505 1.90816 0.900213 2.73215C0.90691 3.55481 1.07399 4.58092 1.71456 5.41027C2.21892 6.06492 2.92724 6.47935 3.60213 6.74198C4.23149 6.9869 4.83762 7.10208 5.23558 7.15596C5.23645 7.17176 5.23732 7.18625 5.23813 7.19931L5.23873 7.20911C5.24058 7.2391 5.24166 7.25656 5.24166 7.26597V8.64111M1.15892 1.2438C1.19529 1.0966 1.33747 0.991006 1.49619 1.00061C1.49707 1.00066 1.49813 1.00072 1.49935 1.00079L5.24166 8.64111M5.24166 8.64111H1.74748C1.62489 8.64111 1.50833 8.69033 1.42565 8.78246C1.34309 8.87128 1.3044 8.99278 1.31743 9.1105L1.31757 9.11165L2.15412 15.9466L2.15415 15.9469C2.23671 16.6069 2.81008 17.1 3.49001 17.1H7.8513C8.52741 17.1 9.10469 16.6073 9.18389 15.9498L5.24166 8.64111ZM8.32736 15.8519L8.32731 15.8524C8.30047 16.081 8.09757 16.26 7.8513 16.26H3.49001C3.24411 16.26 3.04041 16.0812 3.01059 15.8515C3.01058 15.8514 3.01056 15.8513 3.01055 15.8512L2.23081 9.48749H9.10394L8.32736 15.8519ZM9.20686 5.85336C8.44501 6.59064 7.26035 6.79496 6.48 6.84013C6.90452 6.3301 7.50804 5.7553 8.03159 5.28741C8.32219 5.02771 8.58678 4.80215 8.78013 4.64055C8.87679 4.55976 8.9556 4.495 9.01088 4.45C9.05195 4.41656 9.07774 4.39594 9.08887 4.38704C9.0928 4.3839 9.0949 4.38222 9.0952 4.38195L9.09531 4.3821L9.10021 4.37824C9.28705 4.23106 9.31338 3.96399 9.15702 3.78316C9.00663 3.6086 8.73704 3.5794 8.55215 3.7292L8.55202 3.7293C8.5495 3.73136 8.54555 3.73455 8.54024 3.73885C8.38688 3.86286 7.09856 4.90471 6.15585 5.92413C6.26351 5.23013 6.5216 4.41323 7.11414 3.83708C7.5885 3.37805 8.22413 3.12476 8.83046 2.9885C9.37984 2.86504 9.89804 2.83926 10.2352 2.84026C10.2348 3.16407 10.2079 3.66304 10.0814 4.19244C9.94127 4.77895 9.68083 5.39468 9.20686 5.85336ZM2.39865 4.90733L2.39864 4.90731C1.99816 4.38902 1.83217 3.74313 1.78057 3.14197C1.73399 2.59921 1.78126 2.09999 1.8281 1.77839C2.15915 1.82549 2.66738 1.92312 3.19267 2.12133C3.77305 2.34032 4.36562 2.67885 4.76646 3.19915L4.76654 3.19926C5.26268 3.84149 5.38887 4.67225 5.40341 5.28402C5.39784 5.3071 5.39241 5.33006 5.38713 5.35293C4.37739 3.8102 2.98361 2.89098 2.89821 2.83466L2.89701 2.83387L2.89701 2.83386L2.89656 2.83357C2.69879 2.70459 2.43338 2.75863 2.30027 2.94978C2.16385 3.14568 2.22342 3.40708 2.42028 3.53547L2.42069 3.53573C2.42066 3.53572 2.42109 3.53599 2.42209 3.53666L2.4263 3.53944L2.44187 3.54991C2.45533 3.55903 2.47481 3.5724 2.4997 3.58992C2.5495 3.62495 2.62089 3.67652 2.70899 3.74375C2.88522 3.87824 3.12802 4.07521 3.39819 4.32756C3.90153 4.79771 4.49687 5.45732 4.93501 6.26067C4.16872 6.09966 3.03854 5.73583 2.39865 4.90733ZM2.47491 3.45171C2.49434 3.46424 4.14587 4.55021 5.06222 6.28625L2.47491 3.45171Z" fill="#3BB30B" stroke="#3BB30B" stroke-width="0.2"/>
</svg>
