<svg width="79" height="43" viewBox="0 0 79 43" fill="none" xmlns="http://www.w3.org/2000/svg">
<path d="M77.6 20.3C76.9 19.5 60.2 0.600006 39.0999 0.600006C17.9999 0.600006 1.29995 19.5 0.599951 20.3C-0.100049 21.1 -0.100049 22.2 0.599951 22.9C1.29995 23.7 17.9999 42.6 39.0999 42.6C60.2 42.6 76.9 23.7 77.6 22.9C78.2999 22.2 78.2999 21.1 77.6 20.3ZM39.0999 38.6C22.8999 38.6 8.99995 25.8 4.89995 21.6C8.99995 17.4 22.8999 4.6 39.0999 4.6C55.2999 4.6 69.2 17.4 73.3 21.6C69.2 25.8 55.2999 38.6 39.0999 38.6ZM45.7999 21.6C45.7999 25.3 42.7999 28.3 39.0999 28.3C35.3999 28.3 32.4 25.3 32.4 21.6C32.4 17.9 35.3999 14.9 39.0999 14.9C42.7999 15 45.7999 18 45.7999 21.6ZM39.0999 7.40001C31.2999 7.40001 25 13.7 25 21.5C25 29.3 31.2999 35.6 39.0999 35.6C46.8999 35.6 53.1999 29.3 53.1999 21.5C53.1999 13.7 46.8999 7.40001 39.0999 7.40001ZM39.0999 31.6C33.5 31.6 29 27.1 29 21.5C29 15.9 33.5 11.4 39.0999 11.4C44.6999 11.4 49.2 15.9 49.2 21.5C49.2 27.1 44.6999 31.6 39.0999 31.6Z" fill="#3F889F"/>
</svg>
