<svg width="15" height="15" viewBox="0 0 15 15" fill="none" xmlns="http://www.w3.org/2000/svg">
<path d="M7.50014 0.875H7.5C6.1897 0.875 4.90882 1.26355 3.81935 1.99151C2.72987 2.71948 1.88073 3.75416 1.3793 4.96472C0.87787 6.17528 0.746673 7.50735 1.0023 8.79247C1.25793 10.0776 1.8889 11.2581 2.81542 12.1846C3.74194 13.1111 4.9224 13.7421 6.20753 13.9977C7.49265 14.2533 8.82472 14.1221 10.0353 13.6207C11.2458 13.1193 12.2805 12.2701 13.0085 11.1807C13.7365 10.0912 14.125 8.8103 14.125 7.5V7.49986C14.123 5.74345 13.4244 4.05954 12.1824 2.81757C10.9405 1.5756 9.25655 0.876986 7.50014 0.875ZM7.49986 13.3146C6.34989 13.3146 5.22575 12.9735 4.26959 12.3347C3.31339 11.6957 2.56811 10.7876 2.12802 9.72514C1.68793 8.66267 1.57278 7.49355 1.79714 6.36563C2.0215 5.23771 2.57528 4.20165 3.38847 3.38846C4.20165 2.57528 5.23771 2.02149 6.36563 1.79714C7.49355 1.57278 8.66267 1.68793 9.72515 2.12802C10.7876 2.56811 11.6957 3.31338 12.3347 4.26959C12.9735 5.22575 13.3146 6.34989 13.3146 7.49986C13.3128 9.04148 12.6996 10.5195 11.6095 11.6095C10.5195 12.6996 9.04148 13.3128 7.49986 13.3146Z" fill="#656565" stroke="#656565" stroke-width="0.25"/>
<path d="M7.78014 7.38396V5.0133C7.78014 4.93898 7.75062 4.86771 7.69807 4.81516C7.64552 4.76261 7.57425 4.73309 7.49993 4.73309C7.42562 4.73309 7.35435 4.76261 7.3018 4.81516C7.24925 4.86771 7.21973 4.93898 7.21973 5.0133V7.49998C7.21975 7.57429 7.24928 7.64555 7.30183 7.69809L9.09374 9.49C9.1464 9.54195 9.21748 9.57097 9.29145 9.57072C9.36543 9.57047 9.4363 9.54097 9.48861 9.48866C9.54092 9.43635 9.57042 9.36548 9.57067 9.29151C9.57093 9.21753 9.54191 9.14646 9.48996 9.09379L7.78014 7.38396Z" fill="#3BB30B"/>
<path d="M7.49993 3.16269C7.57425 3.16269 7.64552 3.13316 7.69806 3.08061C7.75061 3.02807 7.78013 2.9568 7.78014 2.88248V2.45629C7.78014 2.38198 7.75062 2.31071 7.69807 2.25816C7.64552 2.20561 7.57425 2.17609 7.49993 2.17609C7.42562 2.17609 7.35435 2.20561 7.3018 2.25816C7.24925 2.31071 7.21973 2.38198 7.21973 2.45629V2.88248C7.21973 2.9568 7.24925 3.02807 7.3018 3.08061C7.35435 3.13316 7.42562 3.16269 7.49993 3.16269Z" fill="black"/>
<path d="M7.49993 12.0228C7.42562 12.0228 7.35435 12.0524 7.3018 12.1049C7.24925 12.1574 7.21973 12.2287 7.21973 12.303V12.7294C7.21973 12.8037 7.24925 12.8749 7.3018 12.9275C7.35435 12.98 7.42562 13.0096 7.49993 13.0096C7.57425 13.0096 7.64552 12.98 7.69807 12.9275C7.75062 12.8749 7.78014 12.8037 7.78014 12.7294V12.303C7.78013 12.2287 7.75061 12.1574 7.69806 12.1049C7.64552 12.0524 7.57425 12.0228 7.49993 12.0228Z" fill="black"/>
<path d="M2.78963 7.31256H2.36346C2.28914 7.31256 2.21787 7.34208 2.16532 7.39463C2.11277 7.44718 2.08325 7.51845 2.08325 7.59277C2.08325 7.66708 2.11277 7.73835 2.16532 7.7909C2.21787 7.84345 2.28914 7.87297 2.36346 7.87297H2.78965C2.86396 7.87297 2.93524 7.84345 2.98778 7.7909C3.04033 7.73835 3.06985 7.66708 3.06985 7.59277C3.06985 7.51845 3.04033 7.44718 2.98778 7.39463C2.93524 7.34208 2.86396 7.31256 2.78965 7.31256H2.78963Z" fill="black"/>
<path d="M12.2101 7.87297H12.6363C12.7106 7.87297 12.7819 7.84345 12.8345 7.7909C12.887 7.73835 12.9165 7.66708 12.9165 7.59277C12.9165 7.51845 12.887 7.44718 12.8345 7.39463C12.7819 7.34208 12.7106 7.31256 12.6363 7.31256H12.2101C12.1358 7.31256 12.0646 7.34208 12.012 7.39463C11.9595 7.44718 11.9299 7.51845 11.9299 7.59277C11.9299 7.66708 11.9595 7.73835 12.012 7.7909C12.0646 7.84345 12.1358 7.87297 12.2101 7.87297Z" fill="black"/>
</svg>
