<svg width="34" height="43" viewBox="0 0 34 43" fill="none" xmlns="http://www.w3.org/2000/svg">
<path d="M32.3502 5.12091H24.6752V4.26813C24.6752 4.04196 24.5854 3.82506 24.4254 3.66513C24.2655 3.50521 24.0486 3.41536 23.8224 3.41536H21.1771C20.9814 2.45148 20.4585 1.58491 19.697 0.962468C18.9354 0.340027 17.9821 0 16.9986 0C16.015 0 15.0617 0.340027 14.3002 0.962468C13.5386 1.58491 13.0157 2.45148 12.82 3.41536H10.1781C9.95193 3.41536 9.73502 3.50521 9.5751 3.66513C9.41517 3.82506 9.32533 4.04196 9.32533 4.26813V5.12091H1.65038C1.42421 5.12091 1.2073 5.21075 1.04738 5.37068C0.887453 5.5306 0.797607 5.74751 0.797607 5.97368V41.7901C0.797607 42.0163 0.887453 42.2332 1.04738 42.3931C1.2073 42.553 1.42421 42.6429 1.65038 42.6429H32.3502C32.5763 42.6429 32.7932 42.553 32.9532 42.3931C33.1131 42.2332 33.2029 42.0163 33.2029 41.7901V5.97368C33.2029 5.74751 33.1131 5.5306 32.9532 5.37068C32.7932 5.21075 32.5763 5.12091 32.3502 5.12091ZM17.0003 1.70982C17.5293 1.70989 18.0452 1.87394 18.4771 2.17938C18.909 2.48482 19.2356 2.91663 19.4119 3.41536H14.5869C14.7634 2.91636 15.0902 2.48435 15.5224 2.17889C15.9547 1.87343 16.471 1.70954 17.0003 1.70982ZM11.0309 5.12091H22.9697V8.53199H11.0309V5.12091ZM31.4974 40.9373H2.50315V6.82645H9.32533V9.38477C9.32533 9.61093 9.41517 9.82784 9.5751 9.98777C9.73502 10.1477 9.95193 10.2375 10.1781 10.2375H23.8224C24.0486 10.2375 24.2655 10.1477 24.4254 9.98777C24.5854 9.82784 24.6752 9.61093 24.6752 9.38477V6.82645H31.4974V40.9373Z" fill="#AA601C"/>
<path d="M11.2798 13.8976L8.47248 16.7066L7.3707 15.6032C7.21057 15.443 6.99339 15.3531 6.76694 15.3531C6.54048 15.3531 6.3233 15.443 6.16317 15.6032C6.00304 15.7633 5.91309 15.9805 5.91309 16.2069C5.91309 16.4334 6.00304 16.6505 6.16317 16.8107L7.86872 18.5162C7.94793 18.5956 8.04204 18.6586 8.14564 18.7016C8.24924 18.7446 8.36031 18.7668 8.47248 18.7668C8.58465 18.7668 8.69571 18.7446 8.79932 18.7016C8.90292 18.6586 8.99703 18.5956 9.07624 18.5162L12.4873 15.1051C12.6475 14.945 12.7374 14.7278 12.7374 14.5014C12.7374 14.2749 12.6475 14.0577 12.4873 13.8976C12.3272 13.7375 12.11 13.6475 11.8836 13.6475C11.6571 13.6475 11.4399 13.7375 11.2798 13.8976Z" fill="#AA601C"/>
<path d="M15.2949 15.3542C15.0687 15.3542 14.8518 15.444 14.6919 15.6039C14.532 15.7639 14.4421 15.9808 14.4421 16.2069C14.4421 16.4331 14.532 16.65 14.6919 16.8099C14.8518 16.9699 15.0687 17.0597 15.2949 17.0597H27.2337C27.4599 17.0597 27.6768 16.9699 27.8367 16.8099C27.9966 16.65 28.0865 16.4331 28.0865 16.2069C28.0865 15.9808 27.9966 15.7639 27.8367 15.6039C27.6768 15.444 27.4599 15.3542 27.2337 15.3542H15.2949Z" fill="#AA601C"/>
<path d="M11.2798 22.4253L8.47248 25.2344L7.3707 24.1309C7.21057 23.9708 6.99339 23.8808 6.76694 23.8808C6.54048 23.8808 6.3233 23.9708 6.16317 24.1309C6.00304 24.291 5.91309 24.5082 5.91309 24.7347C5.91309 24.9611 6.00304 25.1783 6.16317 25.3384L7.86872 27.044C7.94793 27.1234 8.04204 27.1864 8.14564 27.2294C8.24924 27.2724 8.36031 27.2945 8.47248 27.2945C8.58465 27.2945 8.69571 27.2724 8.79932 27.2294C8.90292 27.1864 8.99703 27.1234 9.07624 27.044L12.4873 23.6329C12.6475 23.4727 12.7374 23.2556 12.7374 23.0291C12.7374 22.8027 12.6475 22.5855 12.4873 22.4253C12.3272 22.2652 12.11 22.1753 11.8836 22.1753C11.6571 22.1753 11.4399 22.2652 11.2798 22.4253Z" fill="#AA601C"/>
<path d="M27.2337 23.8819H15.2949C15.0687 23.8819 14.8518 23.9717 14.6919 24.1317C14.532 24.2916 14.4421 24.5085 14.4421 24.7347C14.4421 24.9608 14.532 25.1777 14.6919 25.3377C14.8518 25.4976 15.0687 25.5874 15.2949 25.5874H27.2337C27.4599 25.5874 27.6768 25.4976 27.8367 25.3377C27.9966 25.1777 28.0865 24.9608 28.0865 24.7347C28.0865 24.5085 27.9966 24.2916 27.8367 24.1317C27.6768 23.9717 27.4599 23.8819 27.2337 23.8819Z" fill="#AA601C"/>
<path d="M11.2798 30.9531L8.47248 33.7621L7.3707 32.6586C7.21057 32.4985 6.99339 32.4085 6.76694 32.4085C6.54048 32.4085 6.3233 32.4985 6.16317 32.6586C6.00304 32.8187 5.91309 33.0359 5.91309 33.2624C5.91309 33.4888 6.00304 33.706 6.16317 33.8661L7.86872 35.5717C7.94793 35.6511 8.04204 35.7141 8.14564 35.7571C8.24924 35.8001 8.36031 35.8222 8.47248 35.8222C8.58465 35.8222 8.69571 35.8001 8.79932 35.7571C8.90292 35.7141 8.99703 35.6511 9.07624 35.5717L12.4873 32.1606C12.6475 32.0005 12.7374 31.7833 12.7374 31.5568C12.7374 31.3304 12.6475 31.1132 12.4873 30.9531C12.3272 30.7929 12.11 30.703 11.8836 30.703C11.6571 30.703 11.4399 30.7929 11.2798 30.9531Z" fill="#AA601C"/>
<path d="M27.2337 32.4096H15.2949C15.0687 32.4096 14.8518 32.4995 14.6919 32.6594C14.532 32.8193 14.4421 33.0362 14.4421 33.2624C14.4421 33.4885 14.532 33.7055 14.6919 33.8654C14.8518 34.0253 15.0687 34.1152 15.2949 34.1152H27.2337C27.4599 34.1152 27.6768 34.0253 27.8367 33.8654C27.9966 33.7055 28.0865 33.4885 28.0865 33.2624C28.0865 33.0362 27.9966 32.8193 27.8367 32.6594C27.6768 32.4995 27.4599 32.4096 27.2337 32.4096Z" fill="#AA601C"/>
</svg>
