<svg width="12" height="13" viewBox="0 0 12 13" fill="none" xmlns="http://www.w3.org/2000/svg">
<path d="M0 7.39217C0 7.11061 0.228247 6.88237 0.509803 6.88237C0.79136 6.88237 1.01961 7.11061 1.01961 7.39217C1.01961 9.92618 3.07383 11.9804 5.60784 11.9804C8.14185 11.9804 10.1961 9.92618 10.1961 7.39217C10.1961 4.85816 8.14185 2.80394 5.60784 2.80394H4.33333C4.05177 2.80394 3.82353 2.57569 3.82353 2.29414C3.82353 2.01258 4.05177 1.78433 4.33333 1.78433H5.60784C8.70496 1.78433 11.2157 4.29505 11.2157 7.39217C11.2157 10.4893 8.70496 13 5.60784 13C2.51071 13 0 10.4893 0 7.39217Z" fill="#B30B0B"/>
<path d="M5.23024 3.74666C5.41348 3.96044 5.38872 4.28227 5.17494 4.46551C4.96117 4.64874 4.63933 4.62399 4.4561 4.41021L2.92669 2.6259C2.76304 2.43498 2.76304 2.15327 2.92669 1.96235L4.4561 0.178037C4.63933 -0.0357368 4.96117 -0.0604936 5.17494 0.122741C5.38872 0.305976 5.41348 0.627815 5.23024 0.841588L3.98521 2.29413L5.23024 3.74666Z" fill="#B30B0B"/>
<path d="M2.68117 3.74666C2.8644 3.96044 2.83965 4.28227 2.62587 4.46551C2.4121 4.64874 2.09026 4.62399 1.90703 4.41021L0.377615 2.6259C0.213972 2.43498 0.213972 2.15327 0.377615 1.96235L1.90703 0.178037C2.09026 -0.0357368 2.4121 -0.0604936 2.62587 0.122741C2.83965 0.305976 2.8644 0.627815 2.68117 0.841588L1.43614 2.29413L2.68117 3.74666Z" fill="#B30B0B"/>
</svg>
